<svg width="136" height="18" viewBox="0 0 136 18" fill="none" xmlns="http://www.w3.org/2000/svg">
<path d="M13.8877 3H3.3877C2.55927 3 1.8877 3.67157 1.8877 4.5V15C1.8877 15.8284 2.55927 16.5 3.3877 16.5H13.8877C14.7161 16.5 15.3877 15.8284 15.3877 15V4.5C15.3877 3.67157 14.7161 3 13.8877 3Z" stroke="white" stroke-width="2" stroke-linecap="round" stroke-linejoin="round"/>
<path d="M11.6377 1.5V4.5" stroke="white" stroke-width="2" stroke-linecap="round" stroke-linejoin="round"/>
<path d="M5.6377 1.5V4.5" stroke="white" stroke-width="2" stroke-linecap="round" stroke-linejoin="round"/>
<path d="M1.8877 7.5H15.3877" stroke="white" stroke-width="2" stroke-linecap="round" stroke-linejoin="round"/>
<path d="M28.6372 14H30.3242V10.479H32.7182L34.4262 14H36.3372L34.4752 10.178C35.0492 9.92133 35.4762 9.53167 35.7562 9.009C36.0362 8.48633 36.1762 7.88433 36.1762 7.203C36.1762 6.36767 35.9662 5.656 35.5462 5.068C35.1309 4.47533 34.4846 4.11133 33.6072 3.976C33.4766 3.95267 33.3342 3.93867 33.1802 3.934C33.0262 3.92467 32.9002 3.92 32.8022 3.92H28.6372V14ZM30.3242 8.904V5.502H32.7322C32.8256 5.502 32.9306 5.50667 33.0472 5.516C33.1639 5.52533 33.2712 5.54167 33.3692 5.565C33.6492 5.635 33.8686 5.761 34.0272 5.943C34.1906 6.12033 34.3049 6.321 34.3702 6.545C34.4402 6.769 34.4752 6.98833 34.4752 7.203C34.4752 7.41767 34.4402 7.637 34.3702 7.861C34.3049 8.085 34.1906 8.28567 34.0272 8.463C33.8686 8.64033 33.6492 8.764 33.3692 8.834C33.2712 8.862 33.1639 8.88067 33.0472 8.89C32.9306 8.89933 32.8256 8.904 32.7322 8.904H30.3242ZM39.2794 14H45.7894V12.418H40.9664V9.569H44.9494V7.987H40.9664V5.502H45.7894V3.92H39.2794V14ZM52.5042 14.21C53.1948 14.21 53.8412 14.0933 54.4432 13.86C55.0452 13.6267 55.5305 13.2767 55.8992 12.81C56.2725 12.3433 56.4592 11.7623 56.4592 11.067C56.4592 10.5677 56.3658 10.1547 56.1792 9.828C55.9972 9.49667 55.7615 9.23067 55.4722 9.03C55.1875 8.82933 54.8912 8.673 54.5832 8.561C54.2798 8.449 54.0045 8.36033 53.7572 8.295L51.9512 7.791C51.7272 7.73033 51.5032 7.65567 51.2792 7.567C51.0552 7.47367 50.8685 7.35 50.7192 7.196C50.5698 7.03733 50.4952 6.83433 50.4952 6.587C50.4952 6.32567 50.5815 6.097 50.7542 5.901C50.9315 5.705 51.1625 5.55333 51.4472 5.446C51.7365 5.33867 52.0492 5.28967 52.3852 5.299C52.9032 5.313 53.3698 5.46467 53.7852 5.754C54.2005 6.04333 54.4618 6.454 54.5692 6.986L56.3822 6.671C56.1582 5.73767 55.6985 5.01667 55.0032 4.508C54.3078 3.99467 53.4422 3.73333 52.4062 3.724C51.7248 3.71933 51.1042 3.829 50.5442 4.053C49.9888 4.27233 49.5455 4.60133 49.2142 5.04C48.8875 5.47867 48.7242 6.02233 48.7242 6.671C48.7242 7.11433 48.7965 7.48767 48.9412 7.791C49.0905 8.08967 49.2795 8.33467 49.5082 8.526C49.7415 8.71733 49.9865 8.869 50.2432 8.981C50.5045 9.093 50.7472 9.18167 50.9712 9.247L53.5752 10.017C54.3218 10.241 54.6952 10.6283 54.6952 11.179C54.6952 11.487 54.5948 11.7507 54.3942 11.97C54.1982 12.1847 53.9415 12.348 53.6242 12.46C53.3068 12.572 52.9685 12.628 52.6092 12.628C52.0025 12.628 51.4658 12.4647 50.9992 12.138C50.5372 11.8113 50.2315 11.3493 50.0822 10.752L48.3322 11.018C48.4395 11.676 48.6822 12.2453 49.0602 12.726C49.4428 13.202 49.9282 13.5683 50.5162 13.825C51.1088 14.0817 51.7715 14.21 52.5042 14.21ZM59.3743 14H65.8843V12.418H61.0613V9.569H65.0443V7.987H61.0613V5.502H65.8843V3.92H59.3743V14ZM68.9638 14H70.6508V10.479H73.0448L74.7528 14H76.6638L74.8018 10.178C75.3758 9.92133 75.8028 9.53167 76.0828 9.009C76.3628 8.48633 76.5028 7.88433 76.5028 7.203C76.5028 6.36767 76.2928 5.656 75.8728 5.068C75.4575 4.47533 74.8111 4.11133 73.9338 3.976C73.8031 3.95267 73.6608 3.93867 73.5068 3.934C73.3528 3.92467 73.2268 3.92 73.1288 3.92H68.9638V14ZM70.6508 8.904V5.502H73.0588C73.1521 5.502 73.2571 5.50667 73.3738 5.516C73.4905 5.52533 73.5978 5.54167 73.6958 5.565C73.9758 5.635 74.1951 5.761 74.3538 5.943C74.5171 6.12033 74.6315 6.321 74.6968 6.545C74.7668 6.769 74.8018 6.98833 74.8018 7.203C74.8018 7.41767 74.7668 7.637 74.6968 7.861C74.6315 8.085 74.5171 8.28567 74.3538 8.463C74.1951 8.64033 73.9758 8.764 73.6958 8.834C73.5978 8.862 73.4905 8.88067 73.3738 8.89C73.2571 8.89933 73.1521 8.904 73.0588 8.904H70.6508ZM81.874 14H84.345L87.523 3.92H85.787L83.092 12.362L80.432 3.92H78.696L81.874 14ZM88.2904 14H90.0264L90.7124 11.816H94.6884L95.3814 14H97.1174L93.9394 3.92H91.4684L88.2904 14ZM91.2094 10.241L92.6864 5.551L94.1844 10.241H91.2094ZM101.371 14H103.058V5.502H106.32V3.92H98.1089V5.502H101.371V14ZM108.979 14H110.666V3.92H108.979V14ZM118.426 14.21C119.434 14.21 120.297 13.9907 121.016 13.552C121.739 13.1087 122.292 12.4927 122.675 11.704C123.062 10.9153 123.256 10.0007 123.256 8.96C123.256 7.91467 123.062 7 122.675 6.216C122.292 5.42733 121.739 4.81367 121.016 4.375C120.297 3.93167 119.434 3.71 118.426 3.71C117.423 3.71 116.559 3.93167 115.836 4.375C115.117 4.81367 114.564 5.42733 114.177 6.216C113.794 7 113.603 7.91467 113.603 8.96C113.603 10.0007 113.794 10.9153 114.177 11.704C114.564 12.4927 115.117 13.1087 115.836 13.552C116.559 13.9907 117.423 14.21 118.426 14.21ZM118.426 12.621C117.413 12.607 116.653 12.2687 116.144 11.606C115.635 10.9433 115.383 10.0613 115.388 8.96C115.393 8.22267 115.507 7.57867 115.731 7.028C115.955 6.47733 116.291 6.05033 116.739 5.747C117.187 5.439 117.749 5.28967 118.426 5.299C119.443 5.313 120.204 5.65133 120.708 6.314C121.217 6.97667 121.471 7.85867 121.471 8.96C121.471 9.69267 121.357 10.3367 121.128 10.892C120.904 11.4427 120.566 11.8697 120.113 12.173C119.665 12.4763 119.103 12.6257 118.426 12.621ZM126.049 14H127.757V6.895L132.433 14H134.141V3.92H132.433V11.025L127.757 3.92H126.049V14Z" fill="white"/>
</svg>
